/* XPM */
static char *_1651a53bba14f84b4b5174000cf53c0DGuXqqkx60JMI8LX[] = {
/* columns rows colors chars-per-pixel */
"33 33 3 1 ",
"  c None",
". c black",
"X c green",
/* pixels */
"                                 ",
"                                 ",
"               ...               ",
"               .X.               ",
"               .X.               ",
"               .X.               ",
"               .X.               ",
"               .X.               ",
"               .X.               ",
"               .X.               ",
"               .X.               ",
"               .X.               ",
"               .X.               ",
"               ...               ",
"                                 ",
"  ............     ............  ",
"  .XXXXXXXXXX.     .XXXXXXXXXX.  ",
"  ............     ............  ",
"                                 ",
"               ...               ",
"               .X.               ",
"               .X.               ",
"               .X.               ",
"               .X.               ",
"               .X.               ",
"               .X.               ",
"               .X.               ",
"               .X.               ",
"               .X.               ",
"               .X.               ",
"               ...               ",
"                                 ",
"                                 "
};
