/* XPM */
static char *_28a63a78aff466cfc42bfa33d733017D34i4A2cQMa8pvg1[] = {
/* columns rows colors chars-per-pixel */
"192 16 10 1 ",
"  c None",
". c #4F0000",
"X c #7F0000",
"o c #8B0000",
"O c #9B0000",
"+ c #A70000",
"@ c #B30000",
"# c #BF0000",
"$ c #CB0000",
"% c #D70000",
/* pixels */
"    ............        ..........................  ................    ........................................    ..................................    ................      ............    ",
"    ............        ..........................  ................    ........................................    ..................................    ................      ............    ",
"  ..OO##$$$$##OO..    ..##$$OO....OO$$$$$$$$$$##OO....OO$$$$$$$$$$OO..  ..##$$##....##$$@@....OO##$$$$$$$$$$OO..  ..##$$$$$$$$$$OO....OO@@$$%%$$$$##OO....OO##$$$$$$$$##OO..  ..##$$$$$$$$##..  ",
"  ..OO##$$$$##OO..    ..##$$OO....OO$$$$$$$$$$##OO....OO$$$$$$$$$$OO..  ..##$$##....##$$@@....OO##$$$$$$$$$$OO..  ..##$$$$$$$$$$OO....OO@@$$%%$$$$##OO....OO##$$$$$$$$##OO..  ..##$$$$$$$$##..  ",
"..OO%%$$OOOO$$$$OO....####$$##..............##$$##..  ........##$$%%OO....##$$@@....##$$##....##$$##..............OO$$OO..........  ..........OO##$$##....XX####....####XX....OO$$OO....##$$OO..",
"..OO%%$$OOOO$$$$OO....####$$##..............##$$##..  ........##$$%%OO....##$$@@....##$$##....##$$##..............OO$$OO..........  ..........OO##$$##....XX####....####XX....OO$$OO....##$$OO..",
"..OO$$$$....%%$$OO......##$$@@..  ..##$$$$$$$$$$@@....OO$$$$$$%%$$$$##....@@%%$$$$$$$$$$##....##$$$$%%%%$$OO..  ..##$$%%%%%%$$##OO..          ..##$$##..  ..OO$$%%%%$$OO..  ..OO$$OO....##$$##..",
"..OO$$$$....%%$$OO......##$$@@..  ..##$$$$$$$$$$@@....OO$$$$$$%%$$$$##....@@%%$$$$$$$$$$##....##$$$$%%%%$$OO..  ..##$$%%%%%%$$##OO..          ..##$$##..  ..OO$$%%%%$$OO..  ..OO$$OO....##$$##..",
"..OO%%$$....$$%%OO..  ..##$$##....##$$$$%%%%##OO..  ..ooOOOOOO##$$$$##....OOOO++++++##$$##..  ..OO++++@@$$$$OO....OO$$OO....$$$$##..          ..##$$@@....OO####....####OO..  ..##$$%%%%%%$$##..",
"..OO%%$$....$$%%OO..  ..##$$##....##$$$$%%%%##OO..  ..ooOOOOOO##$$$$##....OOOO++++++##$$##..  ..OO++++@@$$$$OO....OO$$OO....$$$$##..          ..##$$@@....OO####....####OO..  ..##$$%%%%%%$$##..",
"..OO##$$OOOO$$##OO..  ..##$$##....##$$OO............  ........OO%%$$OO..............##$$##..............##$$OO....OO$$OO....$$$$##..          ..##$$##....##$$##....##$$##..  ..........OO##OO..",
"..OO##$$OOOO$$##OO..  ..##$$##....##$$OO............  ........OO%%$$OO..............##$$##..............##$$OO....OO$$OO....$$$$##..          ..##$$##....##$$##....##$$##..  ..........OO##OO..",
"  ..OO##$$%%@@OO..    ..##$$OO....OO##$$$$$$$$$$OO....##$$$$$$$$$$##..            ..OO##OO....OO##$$$$####OO....  ..##$$$$$$$$##OO..          ..##$$OO....OO##$$$$$$$$##OO....OO$$$$$$$$####..  ",
"  ..OO##$$%%@@OO..    ..##$$OO....OO##$$$$$$$$$$OO....##$$$$$$$$$$##..            ..OO##OO....OO##$$$$####OO....  ..##$$$$$$$$##OO..          ..##$$OO....OO##$$$$$$$$##OO....OO$$$$$$$$####..  ",
"    ............      ..............................................              ............................      ..............            ..........  ................  ................    ",
"    ............      ..............................................              ............................      ..............            ..........  ................  ................    "
};
