/* XPM */
static char *ac2f68ff612d46dab906ac408f446a0bi2pIsnrYr7qrQXzV[] = {
/* columns rows colors chars-per-pixel */
"95 5 7 1 ",
"  c None",
". c #838383",
"X c #8B8B8B",
"o c #939393",
"O c #9F9F9F",
"+ c gray67",
"@ c #B7B7B7",
/* pixels */
"  ...   .   .   .   .   .X...                          ..   .X  .X...   .X.  X.  X...X. .X   X.",
" oo oo ooo ooo ooo ooo oo   oo                         oo   oo oo      oo oo oo    oo   oo   oo",
"OOOOOO OOOOOOO OOOOOOO OO   OO                         OOOOOOO OOOOOO OOOOOO OO    OO   OOOOOOO",
"++  ++ ++ + ++ ++ + ++ ++   ++                         ++   ++ ++     ++  ++ ++    ++   ++   ++",
"@@  @@ @@   @@ @@   @@  @@@@@                          @@   @@  @@@@@ @@  @@ @@@@  @@   @@   @@"
};
