/* XPM */
static char *key_g_xpm[] = {
/* width height num_colors chars_per_pixel */
"    64    64       16            1",
/* colors */
"` c #400000",
". c #580000",
"# c #6c0000",
"a c #700000",
"b c #740000",
"c c #780000",
"d c #7c0000",
"e c #545454",
"f c #646464",
"g c #00ff00",
"h c #840000",
"i c #8c0000",
"j c #980000",
"k c #b02020",
"l c #000000",
"m c #000000",
/* pixels */
"gggggggggggggggggggggggggggggggggggggggggggggggggggggggggggggggg",
"gggggggggggggggggggggggggggggggggggggggggggggggggggggggggggggggg",
"gggggggggggggggggggggggggggggggggggggggggggggggggggggggggggggggg",
"gggggggggggggggggggggggggggggggggggggggggggggggggggggggggggggggg",
"gggggggggggggggggggggggggggggggggggggggggggggggggggggggggggggggg",
"gggggggggggggggggggggggggggggggggggggggggggggggggggggggggggggggg",
"gggggggggggggggggggggggggggggggggggggggggggggggggggggggggggggggg",
"gggggggggggggggggggggggggggggggggggggggggggggggggggggggggggggggg",
"gggggggggggggggggggggggggggggggggggggggggggggggggggggggggggggggg",
"gggggggggggggggggggggggggggggggggggggggggggggggggggggggggggggggg",
"gggggggggggggggggggggggggggggggggggggggggggggggggggggggggggggggg",
"gggggggggggggggggggggggggggggggggggggggggggggggggggggggggggggggg",
"gggggggggggggggggggggggggggggggggggggggggggggggggggggggggggggggg",
"gggggggggggggggggggggggggggggggggggggggggggggggggggggggggggggggg",
"gggggggggggggggggggggggggggggggggggggggggggggggggggggggggggggggg",
"gggggggggggggggggggggggggggggggggggggggggggggggggggggggggggggggg",
"gggggggggggggggggggggggggggggggggggggggggggggggggggggggggggggggg",
"gggggggggggggggggggggggggggggggggggggggggggggggggggggggggggggggg",
"gggggggggggggggggggggggggggggggggggggggggggggggggggggggggggggggg",
"gggggggggggggggggggggggggggggggggggggggggggggggggggggggggggggggg",
"gggggggggggggggggggggggggggggggggggggggggggggggggggggggggggggggg",
"gggggggggggggggggggggggggggggggggggggggggggggggggggggggggggggggg",
"ggggggggggggggggggggggggggggggggggggggggggggggggggggggggggggggfg",
"ggggggggggggggggggggggggggggggggggggggggggggggggggggggdddc#gggfg",
"ggggggggggggggggggggggggggggggggggggggggggggggggggggg#kkkjc#ggeg",
"gggggggggggggggggggggggggggggggggggggggggggggggggggggkjdjkj.ggeg",
"gggggggggggggggggggggggggggggggggggggggggggggggggggggk.ggkj.ggeg",
"gggggggggggggggggggggggggggggggggggggggggggggggggggggk.ggkj.ggeg",
"gggggggggggggggggggggggggggggggggggggggggggggggggggggkjdjkj.ggeg",
"ggggggggggggggggggggggggggggggggggggggggggggggggggggg#kkkjc.ggeg",
"gggggggggggggggggggggggggggggggggggggggggggggggggggggggki#`gggeg",
"gggggggggggggggggggggggggggggggggggggggggggggggggggggggki.ggggeg",
"ggggggggggggggggggggggggggggggggggggggggggggggggggggggg##`ggggeg",
"gggggggggggggggggggggggggggggggggggggggggggggggggggggggki.ggggeg",
"ggggggggggggggggggggggggggggggggggggggggggggggggggggggg##`ggggeg",
"gggggggggggggggggggggggggggggggggggggggggggggggggggggggki.ggggeg",
"gggggggggggggggggggggggggggggggggggggggggggggggggggggggki.ggggeg",
"gggggggggggggggggggggggggggggggggggggggggggggggggggggggki.jj.geg",
"gggggggggggggggggggggggggggggggggggggggggggggggggggggggkiakk.geg",
"gggggggggggggggggggggggggggggggggggggggggggggggggggggggkiajj.geg",
"gggggggggggggggggggggggggggggggggggggggggggggggggggggggki...ggeg",
"gggggggggggggggggggggggggggggggggggggggggggggggggggggggkiajj.geg",
"gggggggggggggggggggggggggggggggggggggggggggggggggggggggkiakk.geg",
"gggggggggggggggggggggggggggggggggggggggggggggggggggggggki.jj.geg",
"gggggggggggggggggggggggggggggggggggggggggggggggggggggggh`gggggeg",
"gggggggggggggggggggggggggggggggggggggggggggggggggggggggkbgggggfg",
"ggggggggggggggggggggggggggggggggggggggggggggggggggggggggggggggfg",
"gggggggggggggggggggggggggggggggggggggggggggggggggggggggggggggggg",
"gggggggggggggggggggggggggggggggggggggggggggggggggggggggggggggggg",
"gggggggggggggggggggggggggggggggggggggggggggggggggggggggggggggggg",
"gggggggggggggggggggggggggggggggggggggggggggggggggggggggggggggggg",
"gggggggggggggggggggggggggggggggggggggggggggggggggggggggggggggggg",
"gggggggggggggggggggggggggggggggggggggggggggggggggggggggggggggggg",
"gggggggggggggggggggggggggggggggggggggggggggggggggggggggggggggggg",
"gggggggggggggggggggggggggggggggggggggggggggggggggggggggggggggggg",
"gggggggggggggggggggggggggggggggggggggggggggggggggggggggggggggggg",
"gggggggggggggggggggggggggggggggggggggggggggggggggggggggggggggggg",
"gggggggggggggggggggggggggggggggggggggggggggggggggggggggggggggggg",
"gggggggggggggggggggggggggggggggggggggggggggggggggggggggggggggggg",
"gggggggggggggggggggggggggggggggggggggggggggggggggggggggggggggggg",
"gggggggggggggggggggggggggggggggggggggggggggggggggggggggggggggggg",
"gggggggggggggggggggggggggggggggggggggggggggggggggggggggggggggggg",
"gggggggggggggggggggggggggggggggggggggggggggggggggggggggggggggggg",
"gggggggggggggggggggggggggggggggggggggggggggggggggggggggggggggggg"
};
