/* XPM */
static char *key_y_xpm[] = {
/* width height num_colors chars_per_pixel */
"    64    64       16            1",
/* colors */
"` c #404000",
". c #585400",
"# c #706c00",
"a c #545454",
"b c #646464",
"c c #00ff00",
"d c #848400",
"e c #9c9c00",
"f c #b4ac00",
"g c #ccc400",
"h c #e4d800",
"i c #000000",
"j c #000000",
"k c #000000",
"l c #000000",
"m c #000000",
/* pixels */
"cccccccccccccccccccccccccccccccccccccccccccccccccccccccccccccccc",
"cccccccccccccccccccccccccccccccccccccccccccccccccccccccccccccccc",
"cccccccccccccccccccccccccccccccccccccccccccccccccccccccccccccccc",
"cccccccccccccccccccccccccccccccccccccccccccccccccccccccccccccccc",
"cccccccccccccccccccccccccccccccccccccccccccccccccccccccccccccccc",
"cccccccccccccccccccccccccccccccccccccccccccccccccccccccccccccccc",
"cccccccccccccccccccccccccccccccccccccccccccccccccccccccccccccccc",
"cccccccccccccccccccccccccccccccccccccccccccccccccccccccccccccccc",
"cccccccccccccccccccccccccccccccccccccccccccccccccccccccccccccccc",
"cccccccccccccccccccccccccccccccccccccccccccccccccccccccccccccccc",
"cccccccccccccccccccccccccccccccccccccccccccccccccccccccccccccccc",
"cccccccccccccccccccccccccccccccccccccccccccccccccccccccccccccccc",
"cccccccccccccccccccccccccccccccccccccccccccccccccccccccccccccccc",
"cccccccccccccccccccccccccccccccccccccccccccccccccccccccccccccccc",
"cccccccccccccccccccccccccccccccccccccccccccccccccccccccccccccccc",
"cccccccccccccccccccccccccccccccccccccccccccccccccccccccccccccccc",
"cccccccccccccccccccccccccccccccccccccccccccccccccccccccccccccccc",
"cccccccccccccccccccccccccccccccccccccccccccccccccccccccccccccccc",
"cccccccccccccccccccccccccccccccccccccccccccccccccccccccccccccccc",
"cccccccccccccccccccccccccccccccccccccccccccccccccccccccccccccccc",
"cccccccccccccccccccccccccccccccccccccccccccccccccccccccccccccccc",
"ccccccccccccccccccccccccccccccccccccccccccccccccccccccccccccccbc",
"ccccccccccccccccccccccccccccccccccccccccccccccccccccccccccccccbc",
"cccccccccccccccccccccccccccccccccccccccccccccccccccccceee#ccccac",
"cccccccccccccccccccccccccccccccccccccccccccccccccccccegghfdcccac",
"cccccccccccccccccccccccccccccccccccccccccccccccccccccggdege#ccac",
"ccccccccccccccccccccccccccccccccccccccccccccccccccccch#cchf#ccac",
"ccccccccccccccccccccccccccccccccccccccccccccccccccccch#cchf#ccac",
"cccccccccccccccccccccccccccccccccccccccccccccccccccccggdege#ccac",
"cccccccccccccccccccccccccccccccccccccccccccccccccccccegggfdcccac",
"ccccccccccccccccccccccccccccccccccccccccccccccccccccccche#ccccac",
"ccccccccccccccccccccccccccccccccccccccccccccccccccccccche.ccccac",
"cccccccccccccccccccccccccccccccccccccccccccccccccccccccf#`ccccac",
"ccccccccccccccccccccccccccccccccccccccccccccccccccccccche.ccccac",
"cccccccccccccccccccccccccccccccccccccccccccccccccccccccf#`ccccac",
"ccccccccccccccccccccccccccccccccccccccccccccccccccccccche.ccccac",
"ccccccccccccccccccccccccccccccccccccccccccccccccccccccche.ccccac",
"ccccccccccccccccccccccccccccccccccccccccccccccccccccccche#ff.cac",
"ccccccccccccccccccccccccccccccccccccccccccccccccccccccche#hh.cac",
"ccccccccccccccccccccccccccccccccccccccccccccccccccccccche#ff.cac",
"ccccccccccccccccccccccccccccccccccccccccccccccccccccccche...ccac",
"ccccccccccccccccccccccccccccccccccccccccccccccccccccccche#ff.cac",
"ccccccccccccccccccccccccccccccccccccccccccccccccccccccche#hh.cac",
"cccccccccccccccccccccccccccccccccccccccccccccccccccccccge#ff.cac",
"cccccccccccccccccccccccccccccccccccccccccccccccccccccccf#cccccac",
"ccccccccccccccccccccccccccccccccccccccccccccccccccccccchdcccccac",
"ccccccccccccccccccccccccccccccccccccccccccccccccccccccccccccccbc",
"ccccccccccccccccccccccccccccccccccccccccccccccccccccccccccccccbc",
"cccccccccccccccccccccccccccccccccccccccccccccccccccccccccccccccc",
"cccccccccccccccccccccccccccccccccccccccccccccccccccccccccccccccc",
"cccccccccccccccccccccccccccccccccccccccccccccccccccccccccccccccc",
"cccccccccccccccccccccccccccccccccccccccccccccccccccccccccccccccc",
"cccccccccccccccccccccccccccccccccccccccccccccccccccccccccccccccc",
"cccccccccccccccccccccccccccccccccccccccccccccccccccccccccccccccc",
"cccccccccccccccccccccccccccccccccccccccccccccccccccccccccccccccc",
"cccccccccccccccccccccccccccccccccccccccccccccccccccccccccccccccc",
"cccccccccccccccccccccccccccccccccccccccccccccccccccccccccccccccc",
"cccccccccccccccccccccccccccccccccccccccccccccccccccccccccccccccc",
"cccccccccccccccccccccccccccccccccccccccccccccccccccccccccccccccc",
"cccccccccccccccccccccccccccccccccccccccccccccccccccccccccccccccc",
"cccccccccccccccccccccccccccccccccccccccccccccccccccccccccccccccc",
"cccccccccccccccccccccccccccccccccccccccccccccccccccccccccccccccc",
"cccccccccccccccccccccccccccccccccccccccccccccccccccccccccccccccc",
"cccccccccccccccccccccccccccccccccccccccccccccccccccccccccccccccc"
};
